# xmcd
#
# Track frame offsets:
# 150
# 18327
# 48696
# 88928
# 147430
# 162056
# 189192
# 224956
# 242274
#
# Disc length: 3679 seconds
#
#
# Revision: 0
# Processed by: cddbd v1.5PL3 Copyright (c) Steve Scherf et al.
# Submitted via: FreeRIP 2.60 
#
DISCID=7c0e5d09
DTITLE=Delicious Blues Stew - Fat Stewsday
DYEAR=2003
DGENRE=Blues
TTITLE0=Checkin' Up On My Baby
TTITLE1=Big Cheif
TTITLE2=Cal Daniels
TTITLE3=Congo Square
TTITLE4=Mardi Gras Mambo
TTITLE5=You Are My Sunshine
TTITLE6=Carnival Time
TTITLE7=They All Asked For You
TTITLE8=Saints Go Marchin' In
EXTD=Bluesfestradio.com
EXTT0=
EXTT1=
EXTT2=
EXTT3=
EXTT4=
EXTT5=
EXTT6=
EXTT7=
EXTT8=
PLAYORDER=
